<?xml version="1.0" encoding="UTF-8"?>
<svg id="Capa_1" data-name="Capa 1" xmlns="http://www.w3.org/2000/svg" viewBox="0 0 272.8 154.3">
  <defs>
    <style>
      .cls-1 {
        fill: #151513;
      }

      .cls-1, .cls-2 {
        stroke-width: 0px;
      }

      .cls-2 {
        fill: #fff;
      }
    </style>
  </defs>
  <path class="cls-2" d="M46.29,130.05c-3.38.47-8.15-.74-9.65,3.09-1.45,3.69-.48,7.91-2.65,11.38-4.05,6.48-13.83,5.58-18.65.6-2.53-2.62-4.2-6.46-2.76-10,1.58-3.88,5.74-5.09,7.45-8.68,1.95-4.09-.47-8.85-1.56-12.83-1.39-5.06-2.52-10.2-3.53-15.35-2.4-12.2-3.39-24.3-2.39-36.7-5.93-.95-7.18-7.72-5.75-12.66,1.21-4.19,3.79-7.91,7.97-9.52,2.05-.79,4.46-1.18,6.6-.56,2.43.71,3.27,3.21,5.81,2.64,3.08-.69,5.95-1.63,9.12-1.98,3.29-.36,6.58-.69,9.87-1.08,6.25-.75,12.87-2.02,19.18-1.61,1.32.09,2.65.26,3.93.65,1.07.33,2.18,1.13,3.27,1.27,2.4.32,5.84-2.17,8.23-2.89,5.9-1.78,12.15-1.71,18.26-1.56,2.85.07,5.66.29,8.41,1.05,1.38.38,2.73.87,4.04,1.48,1.4.65,2.78,1.98,4.2,2.47,1.35.46,2.33-.48,3.63-.93,1.43-.5,2.93-.74,4.41-.99,3.51-.59,7.05-.93,10.61-1.01,5.61-.12,14.27-.35,17.5,5.23,5.04-.53,9.89-1,14.8.62.97.32,2.58,1.47,3.6,1.39,1.12-.09,1.9-1.23,2.68-1.92,1.65-1.44,3.44-2.72,5.33-3.82,9.61-5.57,18.28-.2,23.71,8.19,8.3-4.72,18.3-8.43,27.99-6.9,1.82.29,3.28,1.01,4.73-.5,1.34-1.39,2-3.66,2.75-5.38,1.87-4.3,4.31-7.38,8.82-8.92,8.3-2.83,16.71.11,22.21,6.88,4.17,5.13,6.93,17.75.04,21.88,4.25,4.86,6.58,13.73,1.06,18.54-1.57,1.36-6.24,3.14-6.68,5.22-.24,1.16.72,3.21.93,4.39.34,1.97.63,3.96.86,5.95.75,6.55-.01,13.26-5.07,17.96-5.28,4.9-12.08,6.12-18.93,7.09.96,6.29,2.57,13.94-1.67,19.38-4.04,5.19-10.24,7.08-16.58,6.11-3.41-.53-6.79-1.35-10.06-2.43-1.53-.5-2.97-1.02-4.36-1.82-2.07-1.18-2.38-.98-4.76-.4-3.38.82-6.89.67-10.24-.23-1.72-.46-3.38-1.12-5.03-1.8-1.63-.66-3.79-2.13-5.53-2.15-1.36,0-2.95.88-4.29,1.16-1.57.33-3.19.55-4.79.61-3.78.14-6.72-1.12-10.21-2.27-2.7-.89-4.7,1.71-7.2,2.74-3.11,1.29-6.33,1.48-9.64,1.11-1.65-.19-3.31-.44-4.93-.82-1.37-.33-2.97-1.23-4.41-1.08-1.41.15-2.75,1.34-4.06,1.88-1.77.74-3.67,1.16-5.57,1.32-3.44.29-6.87-.34-10.27-.84-3.61-.53-6.97.93-10.63,1.06-2.28.08-2.58.04-3.68,2.14-.68,1.3-1.54,2.5-2.57,3.55-2.1,2.16-4.78,3.59-7.59,4.61-3.38,1.23-7.23,2.2-10.79,1.2-1.41-.39-2.71-1.09-3.7-2.19-.74-.83-1.17-3.04-1.95-3.53-6.67,3.73-14.15,5.66-21.68,3.2-5.83-1.91-8.22-6.88-8.22-12.7ZM82.32,120.13c.11.05.22.1.33.15,0,3.37-3.75,5.49-3.15,9.35.46,2.98,3.44,5.04,6.3,5.35,3.07.33,6.17-1.48,7.78-4.05.75-1.19,1.2-2.56,1.46-3.94.2-1.1-.19-3.42.32-4.37,1.2-2.23,8.52-.09,10.74.07,4.5.31,7.63-1.51,11.62-3.02,1.97-.74,2.86.51,4.63,1.17,1.76.66,3.76.74,5.62.82,4.36.18,6.97-1.61,10.23-4.26,2.87,3.42,7.94,4.33,12.16,4.78,4.28.46,8.31.17,10.37-4.11.15.2.25.34.4.53.27-.8.51-1.53.73-2.19,6.66,4.28,16.1,6.86,21.8-.18,2.86,6.3,7.95,8.44,14.74,7.87,1.74-.15,3.43-.51,5.13-.91,1.09-.26,3.45-1.33,4.54-1.02.8.23,1.65,1.52,2.54,1.96,1.32.65,2.82,1.07,4.25,1.37,5.65,1.17,11.69.63,14.67-4.94,2.95-5.5.53-11.46-2.2-16.49,4.18.75,8.38,1.52,12.5.03,3.43-1.24,6.68-3.24,9.37-5.69,3.08-2.81,4.48-5.86,4.83-9.99.19-2.21.28-4.47.18-6.68-.1-2.08-.9-4.2-.89-6.26,0-1.66.59-1.54,2.13-1.86,1.88-.38,3.66-.98,5.27-2.05,3.59-2.4,4.02-6.23,3.06-10.24-.79-3.29-2.61-5.37-6.12-5.5-4.25-.16-6.52,3.49-9.82,5.6-.08-.05-.15-.09-.23-.14.85-2.72,2.14-3.99,4.58-5.53,1.9-1.2,3.98-2.16,5.76-3.55,3.79-2.95,4.31-7.82,3.06-12.25-2.37-8.4-12.12-7.15-17.43-2.32-1.39,1.26-2.53,2.78-3.26,4.51-.79,1.87-1.08,4.69-2.39,6.3-1.33,1.63-3.15.32-4.95-.19-2.35-.67-4.76-1.12-7.22-1.07-5.11.09-10.73,2.26-15.42,4.16-4.23,1.72-7.43,4.39-9.83,8.24-3.61-5.27-6.76-11.01-13.92-11.21-6.21-.17-12.67,4.2-16.28,9.01-1.57-4.84-4.02-6.96-9.19-7.68-5.16-.72-10.34.24-15.08,2.33-1.12-.69-1.64-2.23-2.55-3.22-.79-.86-1.7-1.58-2.73-2.13-2.27-1.22-4.85-1.32-7.37-1.32-3.19,0-6.61.23-9.7,1.07-2.6.7-4.1,2.45-5.6,4.57-3.65-2.13-7.05-4.21-11.25-5.09-4.04-.85-8.21-1.07-12.32-.63-3.87.41-7.72,1.33-11.48,2.12-3.34.71-6.82,3.63-9.61,5.53-1.39-2.5-2.48-4.28-4.96-5.85-2.35-1.49-4.83-2.63-7.66-2.59-5.63.08-11.8.83-17.24,2.28-8.13,2.16-19,3.76-21.04,13.36-2.19,10.33-1.45,21.48-.05,31.85.68,5,1.97,9.9,2.83,14.88.81,4.72,2.31,8.79,5.66,12.36,2.75,2.92,9.57,2.76,13.37,2.98,4.84.28,9.74.38,14.56-.11-1.07,3.08-1.62,5.71,1.14,8.03,2.28,1.92,5.52,3.2,8.52,2.96,6.76-.53,10.33-8.07,13.74-12.95Z"/>
  <path class="cls-2" d="M204.76,32.46c2.4-5.27,4.49-10.61,6.08-16.5-2.49,1.3-4.75,2.84-7.06,4.43-1.45,1-4.09,3.79-5.46,1.41-.56-.96-.28-2.83-.35-3.91-.08-1.42-.22-2.81-.44-4.22-.46-2.97-1.1-5.92-1.65-8.87-.11,0-.23,0-.34,0-3.56,3.88-7.6,8.25-11.82,11.42-2.36,1.78-2.92.03-3.69-2.26-.93-2.76-2.05-5.42-2.05-8.34,2.84,0,3.98,3.72,5.21,5.79,2.01-2.12,4.03-4.24,6.07-6.34,1.82-1.86,4.02-4.62,6.77-5.04,4.46-.69,5.38,11.4,5.92,14.41,1.98-.94,3.98-1.87,5.97-2.79,1.85-.86,4.28-2.6,6.43-2.27,4.11.64.29,7.44-.55,9.75-1.64,4.51-3.41,8.99-5.16,13.46-.6,1.52-1.2,3.69-2.41,4.87-1.8,1.75-3.2.04-4.57-1.33-2.62-2.62-4.91-5.34-8.5-6.62-3.58-1.28-7.79-1.31-11.47-.41-1.81.44-3.65,1.15-5.21,2.18-1.1.72-3.71,2.93-4.42.31-.82-3.01,5.56-5.89,7.63-6.57,10.04-3.28,17.58,1.09,25.08,7.46Z"/>
  <path class="cls-2" d="M151.6,140.66c-2.74.57-5.55.28-8.3-.09-1.22-.17-2.44-.51-3.66-.66-1.59-.19-2.36.42-3.79,1.09-5.18,2.43-11.24,3.2-16.7,1.22-1.14-.41-2.28-1.25-3.53-1.3-1.1-.05-2.25.55-3.3.84-.98.27-2.26.3-3.14.83-1,.6-1.81,1.95-2.64,2.77-3.42,3.38-8.59,7.4-13.33,8.58-2.21.55-4.81.46-7.02-.08-1.47-.36-5.97-1.98-5.66-4.08.3-2.08,4.36-1,5.65-.88,2.7.25,5.4.15,7.97-.81,5.32-1.98,9.02-6.81,14.17-8.9,2.08-.84,5.1-2.06,7.38-2.05,1.15,0,2,.6,3.04.97,1.39.49,2.93.76,4.38.99,2.76.44,5.55.22,8.22-.63,1.47-.47,2.89-1.12,4.23-1.86,1.13-.63,2.24-1.74,3.51-2,2.43-.49,6.49,1.86,8.69,2.84,1.9.85,3.72.96,3.83,3.23Z"/>
  <path class="cls-2" d="M245.01,117.84c1.6-5.15,5.5-4.4,9.08-1.58,2.53,1.99,6.4,5.78,5.49,9.38-1.18,4.71-6.47,2.88-9.2.92-2.91-2.1-4.83-5.18-5.37-8.72Z"/>
  <path class="cls-2" d="M172.83,2.49c1.8.89,1.76,2.51,1.7,4.24-.09,2.49-.2,4.99-.3,7.48-.1,2.53-.2,5.06-.37,7.59-.1,1.47.3,4.82-1.88,5.21-3.74.66-1.61-8.65-1.45-10.45.24-2.63.49-5.26.75-7.89.18-1.77-.17-5.07,1.55-6.19Z"/>
  <path class="cls-2" d="M3.48,60.02c2.1.14,4.3,1.18,4.83,3.37.57,2.32-1.09,4.36-3.39,4.69-5.1.74-7.26-8.08-1.45-8.07Z"/>
  <path class="cls-2" d="M248.79,135.64c-3.38.01-2.86-5.81.75-4.67,2.73.86,2.23,4.66-.75,4.67Z"/>
  <path class="cls-1" d="M82.32,120.13c-3.41,4.88-6.99,12.41-13.74,12.95-3,.24-6.24-1.04-8.52-2.96-2.76-2.33-2.21-4.95-1.14-8.03-4.82.49-9.73.39-14.56.11-3.81-.22-10.63-.06-13.37-2.98-3.35-3.56-4.85-7.64-5.66-12.36-.86-4.97-2.15-9.88-2.83-14.88-1.4-10.38-2.14-21.53.05-31.85,2.04-9.61,12.9-11.2,21.04-13.36,5.44-1.44,11.61-2.19,17.24-2.28,2.82-.04,5.31,1.1,7.66,2.59,2.48,1.57,3.57,3.36,4.96,5.85,2.78-1.9,6.26-4.83,9.61-5.53,3.76-.8,7.61-1.71,11.48-2.12,4.11-.44,8.27-.22,12.32.63,4.2.88,7.6,2.96,11.25,5.09,1.5-2.13,3.01-3.87,5.6-4.57,3.09-.84,6.51-1.07,9.7-1.07,2.53,0,5.1.1,7.37,1.32,1.02.55,1.94,1.28,2.73,2.13.91.99,1.42,2.53,2.55,3.22,4.74-2.09,9.92-3.05,15.08-2.33,5.17.72,7.62,2.84,9.19,7.68,3.61-4.8,10.07-9.17,16.28-9.01,7.16.2,10.31,5.94,13.92,11.21,2.4-3.85,5.6-6.52,9.83-8.24,4.69-1.91,10.3-4.07,15.42-4.16,2.46-.05,4.87.4,7.22,1.07,1.8.52,3.63,1.83,4.95.19,1.3-1.61,1.6-4.43,2.39-6.3.73-1.73,1.87-3.25,3.26-4.51,5.32-4.83,15.06-6.08,17.43,2.32,1.25,4.43.73,9.3-3.06,12.25-1.78,1.39-3.86,2.34-5.76,3.55-2.44,1.54-3.72,2.81-4.58,5.53.08.05.15.09.23.14,3.29-2.11,5.56-5.76,9.82-5.6,3.51.13,5.34,2.21,6.12,5.5.96,4.01.53,7.84-3.06,10.24-1.61,1.07-3.39,1.67-5.27,2.05-1.54.31-2.12.19-2.13,1.86,0,2.05.8,4.17.89,6.26.1,2.21.01,4.47-.18,6.68-.35,4.13-1.75,7.18-4.83,9.99-2.69,2.45-5.94,4.45-9.37,5.69-4.12,1.49-8.32.72-12.5-.03,2.73,5.03,5.15,10.99,2.2,16.49-2.98,5.56-9.02,6.1-14.67,4.94-1.43-.29-2.94-.71-4.25-1.37-.89-.44-1.74-1.73-2.54-1.96-1.09-.31-3.45.76-4.54,1.02-1.69.4-3.39.77-5.13.91-6.79.57-11.88-1.57-14.74-7.87-5.7,7.04-15.13,4.45-21.8.18-.22.66-.47,1.39-.73,2.19-.14-.19-.24-.33-.4-.53-2.06,4.27-6.09,4.57-10.37,4.11-4.22-.46-9.29-1.37-12.16-4.78-3.26,2.65-5.87,4.44-10.23,4.26-1.86-.08-3.86-.16-5.62-.82-1.77-.66-2.66-1.92-4.63-1.17-4,1.5-7.12,3.33-11.62,3.02-2.22-.15-9.54-2.3-10.74-.07-.51.96-.12,3.27-.32,4.37-.26,1.38-.71,2.74-1.46,3.94-1.61,2.57-4.71,4.38-7.78,4.05-2.86-.31-5.83-2.37-6.3-5.35-.6-3.86,3.15-5.98,3.15-9.35-.11-.05-.22-.1-.33-.15ZM77.52,115.45c-5,1.32-10.87,3.33-13.84,7.93-1.2,1.86-1.4,3,.64,4.08,2.2,1.16,4.81,1.41,6.74-.34,2.03-1.84,3.02-4.61,4.7-6.72,1.32-1.66,2.67-4.07,4.81-4.67,4.43-1.24,8.17,3.42,5.81,7.47-.79,1.36-3.85,3.6-1.91,5.26,1.62,1.39,3.59-.45,4.23-1.85,1.87-4.08.97-9.34,6.41-10.64,2.38-.57,4.88.43,7.3.39,2.61-.04,5.2-.43,7.7-1.17,4.43-1.32,8.4-3.54,10.75-7.66,2.46-4.32.75-8.96-1.33-13.14-1.09-2.18-2.51-4.22-4.33-5.86-1.81-1.64-3.26-1.73-5.6-2.04-5.13-.68-9.95-2.57-14.31-5.33-1.44-.91-4.56-2.29-4.24-4.46.29-1.91,2.22-.86,3.4-.19,4.76,2.7,8.84,4.83,14.51,4.5,4.63-.27,8.17-2.2,10.61-6.19,5.52-9.05-3.74-19.99-12.4-22.39-5.17-1.43-10.54-1.51-15.77-.49-4.65.91-9.77,1.87-13.22,5.33-.68.68-1.58,1.28-1.67,2.24-.07.82.77,2.19.99,2.95.72,2.39,1.15,4.93.97,7.43-.35,4.66-3.4,7.97-6.97,10.66.78,1.66,2.87,5.29,4.88,5.65,1.1.2,2.73-.74,3.81-1.03,1.47-.4,2.97-.7,4.5-.84,6.13-.54,10.52,1.47,15.28,5.03-.04-.98-.08-1.93-.13-3.01,1.41.82,3.66,3.12,4.02,4.78.56,2.64-2.32,3.36-4.27,2.92-2.83-.64-5.4-2.1-8.25-2.73-2.84-.63-5.8-.72-8.65-.09-5.25,1.16-10.29,3.63-11.03,9.38-.66,5.11,2.01,11.52,5.87,14.83ZM48.93,98.63c-.14-.11-.28-.22-.41-.34.3-2.36.9-3.21,2.71-4.92,1.7-1.61,3.43-2.89,5.68-3.6,1.22-.39,4.47-.36,5.14-1.49.68-1.13-.24-4.95-1.04-6.02-1.2-1.59-2.98-1.49-4.76-1.87-2.08-.44-4.07-1.14-5.78-2.45-1.91-1.48-2.04-2.84.66-2.51,2.67.33,5.25,1.08,7.95,1.16,3.25.09,9.24-.04,10.72-3.52,1.57-3.7.58-8.28-.03-12.08-.37-2.28-1.38-4.11-2.56-6.07-.81-1.34-1.64-3.48-3.18-4.01-2.01-.69-5.49-.25-7.59-.16-2.17.09-4.34.46-6.48.82-4.68.79-9.31,1.87-13.91,3.06-1.91.5-5.02.74-6.65,1.86-1.37.94-1.81,3.63-2.32,5.18-1.45,4.46-1.15,8.87-.94,13.5.21,4.58.71,9.15,1.36,13.69.65,4.53,1.51,8.99,3.01,13.33.79,2.28,1.69,4.51,2.59,6.75.58,1.45,1.02,3.26,2.24,4.32,3.17,2.75,8.47,2.55,12.37,2.79,4.41.28,8.88.79,13.26-.06,2.37-.46,8.34-1.66,8.1-5.13-.07-1.06-1.13-2.25-1.5-3.28-.32-.9-.54-1.86-.65-2.81-.23-1.97.06-3.88.47-5.8,1.96-9.03-14.82-1.69-18.44-.34ZM219.5,97.91c2.28-1.3,4.46.58,6.54,1.39,2.03.79,4.14,1.04,6.31,1.06,4.84.04,8.95-3.01,12.55-6,3.53-2.94,5.32-7.14,5.06-11.72-.22-3.92-2.89-9.62,1.69-11.93,3.73-1.88,8.52-1.97,7.95-7.19-.16-1.5-.75-4.03-2.76-3.36-1.77.59-3.58,3.18-5.13,4.25-2.45,1.68-6.59,2.63-8.02-.91-1.24-3.06.91-7.25,3.1-9.3,2.82-2.64,7.46-3.66,9.56-7.01,1.63-2.6,1.42-7.07-1.55-8.69-2.53-1.39-6.45,1.01-8.14,2.89-1.23,1.37-1.78,2.98-2.39,4.68-.7,1.96-1.68,3.65-2.71,5.44-1.7,2.95-3.89,5.7-7.78,4.59-2.01-.57-3.75-1.63-5.86-1.99-2.15-.36-4.33-.29-6.47.13-6.88,1.35-16.03,6.03-16.4,13.96-.2,4.21,2.18,9.09,3.49,13.04,1.44,4.36,2.83,8.57,3.74,13.08.96,4.73,2.08,9.48,2.2,14.32.05,1.98.05,3.89.19,5.87.09,1.36-.21,1.96-.59,3.17-.22.7-.71,1.13-.14,1.86,2.36.48,6.01,1.32,8.3.25,2.23-1.04,2.82-3.92,2.85-6.14.04-3.21-.78-6.38-1.98-9.34-.6-1.49-1.01-2.24-2.14-3.25-.98-.88-1.68-1.71-1.45-3.14ZM119.8,84.63c4.35,4.27,6.92,9.26,8.49,15.12.83,3.11.9,5.41-.63,8.29-1.35,2.55-2.85,4.86-4.5,7.24,2.53,0,6.19.73,8.36-.87,2.04-1.51,2.44-4.86,3.17-7.15.96-3.02,1.87-6.05,2.61-9.13.64-2.68.52-6.6,1.76-8.99.11-.03.23-.06.34-.08,4.14,7.22-5.12,23.38,6.5,26.63,4.12,1.15,8.45,1.59,10.21-2.87,1.96-4.95,3.51-10.1,4.84-15.25,2.62-10.13,3.18-20.32,3.08-30.74-.03-2.55.81-8.37-1.9-9.84-3.23-1.76-9.77-1.21-13.07.1-4.1,1.62-4.27,7.45-4.9,11.09-.47,2.72-1.02,5.44-1.53,8.15-.37,1.99-.28,4.35-2.36,5.32-2.59-2.26-1.1-6-.75-9.01.44-3.7.87-7.4.79-11.13-.06-2.54.32-6.79-2-8.5-2.41-1.77-7.38-1-10.15-.64-1.87.24-2.98.23-3.66,2.04-.64,1.68-.91,2.82-.18,4.42,1.53,3.37,3.32,6.33,3.52,10.14.32,6.28-3.29,11.86-8.05,15.64ZM190.09,99.28c1.94,2.73-1.62,5.84-2.35,8.42-.63,2.22.99,5.11,2.37,6.81,3.11,3.86,11.05,3.78,14.85.83,4.22-3.28,3.78-10.03,3.34-14.74-.5-5.38-1.4-11.2-3.34-16.25-2.16-5.6-4.51-11.17-6.99-16.63-1.16-2.55-2.66-4.91-4.39-7.12-1.43-1.82-3.09-4.36-5.35-5.2-4.74-1.75-10.65,2.54-13.86,5.56-.92.87-2.66,2.08-3.24,3.19-.48.91-.36,1.93-.39,2.95-.1,2.87-.1,5.74-.2,8.6-.44,12.3-3.49,23.82-6.37,35.71,3.65,2.41,10.84,4.99,14.53,1.45,2.13-2.04,4.02-4.84,5.76-7.23,1.31-1.82,3.14-6.02,5.64-6.34Z"/>
  <path class="cls-2" d="M77.52,115.45c-3.86-3.32-6.53-9.72-5.87-14.83.74-5.75,5.78-8.22,11.03-9.38,2.85-.63,5.81-.54,8.65.09,2.85.63,5.42,2.09,8.25,2.73,1.95.44,4.83-.28,4.27-2.92-.35-1.66-2.6-3.97-4.02-4.78.05,1.09.09,2.04.13,3.01-4.76-3.56-9.15-5.57-15.28-5.03-1.52.14-3.02.44-4.5.84-1.08.29-2.71,1.23-3.81,1.03-2.01-.36-4.09-3.99-4.88-5.65,3.57-2.7,6.63-6,6.97-10.66.19-2.5-.25-5.04-.97-7.43-.23-.75-1.07-2.12-.99-2.95.08-.96.99-1.56,1.67-2.24,3.46-3.46,8.58-4.42,13.22-5.33,5.23-1.02,10.61-.94,15.77.49,8.66,2.4,17.93,13.34,12.4,22.39-2.44,4-5.98,5.92-10.61,6.19-5.67.33-9.75-1.8-14.51-4.5-1.18-.67-3.11-1.73-3.4.19-.32,2.17,2.8,3.55,4.24,4.46,4.36,2.76,9.18,4.65,14.31,5.33,2.34.31,3.79.41,5.6,2.04,1.82,1.64,3.24,3.68,4.33,5.86,2.08,4.18,3.79,8.82,1.33,13.14-2.35,4.11-6.32,6.34-10.75,7.66-2.5.74-5.09,1.13-7.7,1.17-2.41.04-4.92-.96-7.3-.39-5.44,1.3-4.55,6.56-6.41,10.64-.64,1.4-2.61,3.24-4.23,1.85-1.93-1.66,1.12-3.9,1.91-5.26,2.36-4.05-1.38-8.72-5.81-7.47-2.14.6-3.49,3.01-4.81,4.67-1.69,2.12-2.67,4.88-4.7,6.72-1.93,1.75-4.54,1.5-6.74.34-2.04-1.08-1.84-2.22-.64-4.08,2.97-4.6,8.84-6.61,13.84-7.93Z"/>
  <path class="cls-2" d="M48.93,98.63c3.62-1.35,20.41-8.69,18.44.34-.42,1.92-.71,3.83-.47,5.8.11.95.33,1.9.65,2.81.37,1.02,1.42,2.21,1.5,3.28.24,3.47-5.73,4.67-8.1,5.13-4.38.85-8.85.33-13.26.06-3.9-.24-9.19-.04-12.37-2.79-1.22-1.05-1.65-2.87-2.24-4.32-.9-2.23-1.8-4.47-2.59-6.75-1.5-4.34-2.36-8.8-3.01-13.33-.65-4.54-1.15-9.11-1.36-13.69-.21-4.63-.51-9.04.94-13.5.5-1.55.94-4.23,2.32-5.18,1.62-1.12,4.74-1.36,6.65-1.86,4.6-1.19,9.22-2.27,13.91-3.06,2.14-.36,4.31-.73,6.48-.82,2.1-.09,5.58-.53,7.59.16,1.55.53,2.37,2.68,3.18,4.01,1.19,1.96,2.19,3.79,2.56,6.07.62,3.8,1.61,8.38.03,12.08-1.48,3.49-7.47,3.61-10.72,3.52-2.7-.07-5.28-.83-7.95-1.16-2.7-.33-2.58,1.03-.66,2.51,1.7,1.31,3.69,2.01,5.78,2.45,1.78.38,3.56.28,4.76,1.87.8,1.06,1.72,4.88,1.04,6.02-.68,1.13-3.92,1.1-5.14,1.49-2.25.72-3.98,1.99-5.68,3.6-1.8,1.71-2.41,2.56-2.71,4.92.14.11.28.22.41.34Z"/>
  <path class="cls-2" d="M219.5,97.91c-.23,1.43.48,2.26,1.45,3.14,1.13,1.02,1.54,1.76,2.14,3.25,1.2,2.96,2.02,6.12,1.98,9.34-.03,2.22-.62,5.1-2.85,6.14-2.29,1.07-5.94.23-8.3-.25-.57-.73-.08-1.16.14-1.86.38-1.2.68-1.81.59-3.17-.14-1.98-.14-3.88-.19-5.87-.11-4.84-1.23-9.6-2.2-14.32-.92-4.51-2.3-8.72-3.74-13.08-1.31-3.95-3.68-8.83-3.49-13.04.38-7.93,9.53-12.6,16.4-13.96,2.14-.42,4.31-.49,6.47-.13,2.12.36,3.85,1.42,5.86,1.99,3.9,1.11,6.08-1.64,7.78-4.59,1.03-1.79,2.01-3.48,2.71-5.44.6-1.7,1.16-3.31,2.39-4.68,1.69-1.88,5.61-4.28,8.14-2.89,2.96,1.63,3.18,6.09,1.55,8.69-2.1,3.34-6.74,4.36-9.56,7.01-2.19,2.06-4.34,6.24-3.1,9.3,1.43,3.54,5.58,2.58,8.02.91,1.56-1.07,3.36-3.66,5.13-4.25,2.01-.67,2.6,1.86,2.76,3.36.57,5.21-4.22,5.31-7.95,7.19-4.58,2.3-1.91,8-1.69,11.93.26,4.58-1.54,8.78-5.06,11.72-3.59,3-7.7,6.04-12.55,6-2.17-.02-4.28-.27-6.31-1.06-2.09-.81-4.27-2.69-6.54-1.39ZM226.87,76.78c1.39-1.2,5.07-3.75,4.4-6-.87-2.97-3.53.96-4.43,1.78-1.15,1.06-2.49,1.88-3.75,2.79-1.62,1.17-1.68,1.36-.42,2.9,1.91,2.33,3.79,4.44,6.22,6.22,1.62-3.46-.35-5.56-2.02-7.7Z"/>
  <path class="cls-2" d="M119.8,84.63c4.76-3.78,8.37-9.36,8.05-15.64-.2-3.82-1.99-6.77-3.52-10.14-.73-1.6-.46-2.73.18-4.42.69-1.8,1.79-1.8,3.66-2.04,2.77-.35,7.74-1.13,10.15.64,2.32,1.71,1.95,5.96,2,8.5.08,3.73-.35,7.43-.79,11.13-.36,3.01-1.84,6.74.75,9.01,2.08-.98,1.99-3.33,2.36-5.32.51-2.72,1.06-5.43,1.53-8.15.64-3.65.81-9.48,4.9-11.09,3.3-1.3,9.84-1.85,13.07-.1,2.71,1.47,1.87,7.29,1.9,9.84.1,10.42-.47,20.61-3.08,30.74-1.33,5.15-2.89,10.3-4.84,15.25-1.77,4.46-6.09,4.02-10.21,2.87-11.62-3.25-2.36-19.41-6.5-26.63-.11.03-.23.06-.34.08-1.24,2.39-1.12,6.31-1.76,8.99-.73,3.08-1.65,6.11-2.61,9.13-.73,2.29-1.13,5.64-3.17,7.15-2.17,1.6-5.83.87-8.36.87,1.64-2.38,3.14-4.69,4.5-7.24,1.53-2.88,1.46-5.18.63-8.29-1.57-5.87-4.14-10.85-8.49-15.12Z"/>
  <path class="cls-2" d="M190.09,99.28c-2.5.32-4.33,4.53-5.64,6.34-1.73,2.39-3.62,5.19-5.76,7.23-3.7,3.54-10.88.96-14.53-1.45,2.88-11.89,5.93-23.41,6.37-35.71.1-2.87.1-5.74.2-8.6.03-1.02-.09-2.04.39-2.95.59-1.11,2.32-2.32,3.24-3.19,3.2-3.01,9.12-7.31,13.86-5.56,2.26.83,3.92,3.37,5.35,5.2,1.73,2.21,3.23,4.57,4.39,7.12,2.49,5.46,4.83,11.04,6.99,16.63,1.95,5.05,2.85,10.87,3.34,16.25.43,4.71.88,11.46-3.34,14.74-3.8,2.95-11.74,3.03-14.85-.83-1.37-1.7-3-4.59-2.37-6.81.73-2.57,4.29-5.68,2.35-8.42ZM182.68,78.99c-.96,2.37,1.75,3.45,1.73,5.56-.01,1.55-1.76,3.15-2.31,4.61-.44,1.15-.44,2.88,1.22,2.66,1.26-.17,2.53-3.08,3.09-3.96,1.32,1.88,2.45,4.63,5.1,4.52-.27-1.42-.65-2.46-1.33-3.75-.41-.77-1.59-2.18-1.6-3.06-.02-2.31,3.05-3.36,2.34-6.05-2.11-.18-2.77,1.84-4.25,2.64-.89-1.54-1.45-3.57-3.98-3.18Z"/>
  <path class="cls-1" d="M226.87,76.78c1.67,2.14,3.64,4.24,2.02,7.7-2.42-1.79-4.31-3.89-6.22-6.22-1.26-1.54-1.2-1.73.42-2.9,1.26-.91,2.6-1.73,3.75-2.79.9-.83,3.55-4.75,4.43-1.78.66,2.25-3.02,4.8-4.4,6Z"/>
  <path class="cls-1" d="M182.68,78.99c2.52-.4,3.09,1.64,3.98,3.18,1.49-.8,2.14-2.82,4.25-2.64.72,2.68-2.35,3.74-2.34,6.05,0,.88,1.19,2.28,1.6,3.06.68,1.29,1.06,2.32,1.33,3.75-2.64.11-3.78-2.64-5.1-4.52-.56.88-1.83,3.79-3.09,3.96-1.66.22-1.66-1.5-1.22-2.66.55-1.46,2.3-3.06,2.31-4.61.02-2.11-2.69-3.19-1.73-5.56Z"/>
</svg>